<svg xmlns="http://www.w3.org/2000/svg" viewBox="0 0 134.3 68.9"><path d="M50.2 53.4c42.6-28.3-2.7 41.3 0 0-5.5-27.8 8.7 24.5 0 0 2.1-4.1 6.2 13.6 0 0-6.3-15-17-13 0 0 31.4 5.5-35.7 1.6 0 0 61.6-8.2 19.3-7.8 0 0 41.6 12.5 115.5-1.2 0 0-14.1 2.3 11.7-7.9 0 0 33.5-7.8 14.4 30.4 0 0-23.7-40.9-22.7-19.8 0 0-53-107.2-74.7-15.9 0 0 15.7-.1-25.3-53.2 0 0 9.9 2.5-7.5 5.4 0 0 10.1-8-8.7 3 0 0-17.9 15.5-18.8-25 0 0 4.6 5.3-7.1 8.6 0 0 16.7-15.9 4.8 22.6 0 0 4.8 23.7-11.4-21.8 0 0 40.8 20.2 11.2 14.8 0 0 7.5 18.8 23.1-15.4 0 0-30.3-5.5 8.6 23 0 0 4.2 20.7 14.1-15.7 0 0-8.7 14.2 5.5 9.2 0 0-12.3-22.3-14.8 14.4 0 0 13.9-15.8 11.2-4 0 0-23.4 13.6-11.1 10.7 0 0 22.2-12.9-24.8-.2 0 0-26.4 5.6-22.9 24.8 0 0 29-.7-18.1-14.8 0 0-14.5-20-22 13.1 0 0 40.7 1.1 35.9.7 0 0 95.9-43.7 122.3 10.7 0 0-19.8-3-12-9.4 0 0 15.7 4.1 23.6 2.4 0 0-37.4 4 32.1 5.3 0 0-18.5-12.4-8.7-11.3 0 0 7.7 11.9 9.8-1.4 0 0 12.6 24-6.9-28.6 0 0-1.7 40.5 41.4-27.3 0 0z" fill="none" stroke="#fff" stroke-width="4" stroke-miterlimit="10"/></svg>