<svg xmlns="http://www.w3.org/2000/svg" viewBox="0 0 184 305.3"><path d="M55.4 302.8c42.6-28.3 16-84.2 18.8-125.5-5.5-27.8 17.6-56.1 8.9-80.5 2.1-4.1 23.8-7.1 17.6-20.7-6.4-15-51.2 1.9-34.2 14.9 31.3 5.5 50.1 38.5 85.9 36.9 61.5-8.2-46.5-42.9-65.7-35.1 41.6 12.5 160.5-23.2 45-22-14.1 2.3-28 7.3-39.7 15.3 33.5-7.8 47.2-40.8 32.8-71.2-23.7-40.9-52.8 35-30 54.9-53-107.3-90.2-15.7-15.5.2 15.6-.1-98.8-13.7-73.5 39.5 9.8 2.5 19.5-5.1 27.1-10.5 10-8 24.5-23.5 33.2-26.5-18 15.5-48.2 41.8-29.4 66.8 4.5 5.3 11.8 17.3 18.9 8.8 16.6-15.9 24.3-40.5 19.5-63.1 4.8 23.7 1.8 51.8 13.3 73.6 40.8 20.2 11.4-51.4.2-66.2 7.5 18.8 35.2 55.7 12.1 71.1-30.4-5.5-17-54.9-25.6-77.9 4.2 20.7-2 43.1-16 58.8-8.7 14.2-19.3-.1-24.8-9.3-12.3-22.3 11.4-43.6 26.2-58 13.8-15.8-29.2 25.6-40.4 29.6C-3.3 120.3.5 87.8 11.6 77.1c22.2-12.9 51.8-7.7 76.6-7.5-26.4 5.6-65.9-27.8-43-52.6 28.9-.7 32.1 38.3 50.2 53.1-14.5-20-10.9-53.8 11.1-66.9 40.7 1.1 24.3 81.2-11.5 80.6 95.9-43.7 123.7 19.7 1.5 9-19.9-3 46.1 2.9 58.1 12.3 15.6 4.1 25.4 24.6 1.8 22.2-37.5 4-57.2-31-89.3-36.3-18.5-12.4 23.4-28.6 32.1-17.3 7.6 11.8-8.1 20.1-17.8 21.5 12.6 23.9-14.3 55.9-7.4 84.5-1.7 40.4 22.8 95.8-18.6 123.1z" fill="none" stroke="#fff" stroke-width="4" stroke-miterlimit="10"/></svg>