<svg id="Layer_3" data-name="Layer 3" xmlns="http://www.w3.org/2000/svg" xmlns:xlink="http://www.w3.org/1999/xlink" viewBox="0 0 279.26 178.46"><defs><style>.cls-1{fill:#9c9;opacity:0.75;}</style></defs><image width="1920" height="1227" transform="scale(0.15)" xlink:href="snow.jpg"/><path class="cls-1" d="M52,0h48V14L88.7,61.1l97.6.9V48.11l-3.83-7.61h93.22L271,51v67h-7.57s2.12,31.63-25.4,31.39S212.64,118,212.64,118h-3.31v6s2.59,27.08-25.4,28.39c-19.9.94-24.24-13.82-25.09-22.42a34.36,34.36,0,0,1-.12-6l-20.1,3,1.06,3s1.38,18.07-15.68,18.37S108.56,130,108.56,130h-5.7l.45,3.73s-.38,15.88-15.68,15.68S72,129.92,72,129.92L45,129.9l4,13.32L0,141l26.22-33.55,9.29-.25-1.42-9.85-3.6-1.9-.61-18.56L32.52,75,36.93,62.2H63L52,14Z"/></svg>